<svg xmlns="http://www.w3.org/2000/svg" width="1350.921" height="2372.758" viewBox="0 0 1350.921 2372.758">
  <path id="Arriere" d="M234.91,111.54s3.38,236.6,35.49,282.23,82.526,63.659,114.92,81.12c66.792,36,241.67,67.6,241.67,67.6s184.94,52.938,294.06,55.77c114.957,2.983,268.064-24.829,322.79-43.94,106.47-37.18,226.46-52.39,283.92,0s52.39,86.19,52.39,86.19,40.137,243.36-92.95,305.89-300.82-50.7-439.4-55.77-253.779,7.3-383.63,32.11c-72.787,13.906-94.64,18.59-160.55,59.15s-182.52,189.28-201.11,236.6-107.315,231.952-40.56,310.96,105.2-3.8,295.75,23.66,312.65,79.43,466.44,86.19,432.64-13.52,498.55-79.43,37.18-133.51,43.94-258.57,15.21-207.87,15.21-207.87v921.049s8.45,106.47-40.56,150.41-187.59,37.18-295.75,13.52-157.17-107.315-334.62-138.58-248.43-18.59-339.69,0-189.28,50.277-258.57,153.79-50.7,256.88-54.08,273.78-23.66,16.9-23.66,16.9Z" transform="translate(-234.91 -111.54)" fill="#bd83f8"/>
</svg>
